<svg xmlns="http://www.w3.org/2000/svg" viewBox="0 0 27 27.004">
  <defs>
    <style>
      .cls-1 {
        fill: #945d60;
      }
    </style>
  </defs>
  <path id="Path_811" data-name="Path 811" class="cls-1" d="M26.827,26.525a1.3,1.3,0,0,0,.043-1.253l-2.376-5.746a5.011,5.011,0,0,0-1.123-1.685L6.048.518A1.706,1.706,0,0,0,4.838,0,1.8,1.8,0,0,0,3.586.518L.518,3.586A1.73,1.73,0,0,0,0,4.838a1.569,1.569,0,0,0,.518,1.21L17.453,22.982a5.849,5.849,0,0,0,1.642,1.123l6.178,2.765a1.733,1.733,0,0,0,.648.13A1.018,1.018,0,0,0,26.827,26.525ZM4.32,7.43,7.43,4.32,21.773,18.662l-3.11,3.11h0ZM6.178,3.11l-3.11,3.11L1.728,4.838l3.11-3.11ZM24.8,24.754,20.131,22.68,22.81,20c.043.086.086.13.086.216Z" transform="translate(27) rotate(90)"/>
</svg>
